<svg width="800" height="150" viewBox="0 0 1251 347" fill="none" xmlns="http://www.w3.org/2000/svg">
<style>
    /* Cor padrão (Dark Mode) */
    .main-color { fill: #0A771A; stroke: #0A771A; }
    .bg-elements { fill: #FFF9F3; stroke: #FFF9F3; }
    .text-color { fill: white; }

    /* Cores para Dark Mode */
    @media (prefers-color-scheme: light) {
      .main-color { fill: ##0A771A; stroke: ##0A771A; } /* Um verde mais vibrante para contraste */
      .bg-elements { fill: #121212; stroke: #121212; }
      .text-color { fill: black; }
    }
</style>
<rect width="1066" height="300" rx="90" fill="#0A771A"/>
<path fill-rule="evenodd" clip-rule="evenodd" d="M1201 0C1214.26 0 1226.98 5.26784 1236.36 14.6447C1245.73 24.0215 1251 36.7392 1251 50V250C1251 263.261 1245.73 275.979 1236.36 285.355C1226.98 294.732 1214.26 300 1201 300H1001C987.739 300 975.021 294.732 965.645 285.355C956.268 275.979 951 263.261 951 250V50C951 36.7392 956.268 24.0215 965.645 14.6447C975.021 5.26784 987.739 0 1001 0H1201ZM1034.33 116.667C1029.91 116.667 1025.67 118.423 1022.55 121.548C1019.42 124.674 1017.67 128.913 1017.67 133.333V216.667C1017.67 221.087 1019.42 225.326 1022.55 228.452C1025.67 231.577 1029.91 233.333 1034.33 233.333C1038.75 233.333 1042.99 231.577 1046.12 228.452C1049.24 225.326 1051 221.087 1051 216.667V133.333C1051 128.913 1049.24 124.674 1046.12 121.548C1042.99 118.423 1038.75 116.667 1034.33 116.667ZM1084.33 100C1079.91 100 1075.67 101.756 1072.55 104.882C1069.42 108.007 1067.67 112.246 1067.67 116.667V216.667C1067.67 221.087 1069.42 225.326 1072.55 228.452C1075.67 231.577 1079.91 233.333 1084.33 233.333C1088.75 233.333 1092.99 231.577 1096.12 228.452C1099.24 225.326 1101 221.087 1101 216.667V155.667C1106.08 149.933 1114.67 143.2 1124.22 139.117C1129.77 136.75 1138.12 135.783 1143.92 137.617C1145.84 138.105 1147.55 139.204 1148.8 140.75C1149.67 141.917 1151 144.517 1151 150V216.667C1151 221.087 1152.76 225.326 1155.88 228.452C1159.01 231.577 1163.25 233.333 1167.67 233.333C1172.09 233.333 1176.33 231.577 1179.45 228.452C1182.58 225.326 1184.33 221.087 1184.33 216.667V150C1184.33 138.833 1181.5 128.9 1175.6 120.933C1170.17 113.709 1162.57 108.412 1153.92 105.817C1138.88 101.1 1122.23 103.717 1111.12 108.483C1107.56 110.014 1104.09 111.75 1100.73 113.683C1100.03 109.843 1098.01 106.37 1095.01 103.869C1092.02 101.369 1088.24 99.9994 1084.33 100ZM1034.33 66.6667C1029.91 66.6667 1025.67 68.4226 1022.55 71.5482C1019.42 74.6738 1017.67 78.9131 1017.67 83.3333C1017.67 87.7536 1019.42 91.9928 1022.55 95.1185C1025.67 98.2441 1029.91 100 1034.33 100C1038.75 100 1042.99 98.2441 1046.12 95.1185C1049.24 91.9928 1051 87.7536 1051 83.3333C1051 78.9131 1049.24 74.6738 1046.12 71.5482C1042.99 68.4226 1038.75 66.6667 1034.33 66.6667Z" fill="#0A771A"/>
<path d="M1034.33 116.667C1029.91 116.667 1025.67 118.423 1022.55 121.548C1019.42 124.674 1017.67 128.913 1017.67 133.333V216.667C1017.67 221.087 1019.42 225.326 1022.55 228.452C1025.67 231.577 1029.91 233.333 1034.33 233.333C1038.75 233.333 1042.99 231.577 1046.12 228.452C1049.24 225.326 1051 221.087 1051 216.667V133.333C1051 128.913 1049.24 124.674 1046.12 121.548C1042.99 118.423 1038.75 116.667 1034.33 116.667Z" fill="#0A771A"/>
<path d="M1034.33 116.667C1029.91 116.667 1025.67 118.423 1022.55 121.548C1019.42 124.674 1017.67 128.913 1017.67 133.333V216.667C1017.67 221.087 1019.42 225.326 1022.55 228.452C1025.67 231.577 1029.91 233.333 1034.33 233.333C1038.75 233.333 1042.99 231.577 1046.12 228.452C1049.24 225.326 1051 221.087 1051 216.667V133.333C1051 128.913 1049.24 124.674 1046.12 121.548C1042.99 118.423 1038.75 116.667 1034.33 116.667Z" class="bg-elements"/>
<path d="M1034.33 66.6667C1029.91 66.6667 1025.67 68.4226 1022.55 71.5482C1019.42 74.6738 1017.67 78.9131 1017.67 83.3333C1017.67 87.7536 1019.42 91.9928 1022.55 95.1185C1025.67 98.2441 1029.91 100 1034.33 100C1038.75 100 1042.99 98.2441 1046.12 95.1185C1049.24 91.9928 1051 87.7536 1051 83.3333C1051 78.9131 1049.24 74.6738 1046.12 71.5482C1042.99 68.4226 1038.75 66.6667 1034.33 66.6667Z" fill="#0A771A"/>
<path d="M1034.33 66.6667C1029.91 66.6667 1025.67 68.4226 1022.55 71.5482C1019.42 74.6738 1017.67 78.9131 1017.67 83.3333C1017.67 87.7536 1019.42 91.9928 1022.55 95.1185C1025.67 98.2441 1029.91 100 1034.33 100C1038.75 100 1042.99 98.2441 1046.12 95.1185C1049.24 91.9928 1051 87.7536 1051 83.3333C1051 78.9131 1049.24 74.6738 1046.12 71.5482C1042.99 68.4226 1038.75 66.6667 1034.33 66.6667Z" class="bg-elements"/>
<path d="M1084.33 100C1079.91 100 1075.67 101.756 1072.55 104.882C1069.42 108.007 1067.67 112.246 1067.67 116.667V216.667C1067.67 221.087 1069.42 225.326 1072.55 228.452C1075.67 231.577 1079.91 233.333 1084.33 233.333C1088.75 233.333 1092.99 231.577 1096.12 228.452C1099.24 225.326 1101 221.087 1101 216.667V155.667C1106.08 149.933 1114.67 143.2 1124.22 139.117C1129.77 136.75 1138.12 135.783 1143.92 137.617C1145.84 138.105 1147.55 139.204 1148.8 140.75C1149.67 141.917 1151 144.517 1151 150V216.667C1151 221.087 1152.76 225.326 1155.88 228.452C1159.01 231.577 1163.25 233.333 1167.67 233.333C1172.09 233.333 1176.33 231.577 1179.45 228.452C1182.58 225.326 1184.33 221.087 1184.33 216.667V150C1184.33 138.833 1181.5 128.9 1175.6 120.933C1170.17 113.709 1162.57 108.412 1153.92 105.817C1138.88 101.1 1122.23 103.717 1111.12 108.483C1107.56 110.014 1104.09 111.75 1100.73 113.683C1100.03 109.843 1098.01 106.37 1095.01 103.869C1092.02 101.369 1088.24 99.9994 1084.33 100Z" fill="#0A771A"/>
<path d="M1084.33 100C1079.91 100 1075.67 101.756 1072.55 104.882C1069.42 108.007 1067.67 112.246 1067.67 116.667V216.667C1067.67 221.087 1069.42 225.326 1072.55 228.452C1075.67 231.577 1079.91 233.333 1084.33 233.333C1088.75 233.333 1092.99 231.577 1096.12 228.452C1099.24 225.326 1101 221.087 1101 216.667V155.667C1106.08 149.933 1114.67 143.2 1124.22 139.117C1129.77 136.75 1138.12 135.783 1143.92 137.617C1145.84 138.105 1147.55 139.204 1148.8 140.75C1149.67 141.917 1151 144.517 1151 150V216.667C1151 221.087 1152.76 225.326 1155.88 228.452C1159.01 231.577 1163.25 233.333 1167.67 233.333C1172.09 233.333 1176.33 231.577 1179.45 228.452C1182.58 225.326 1184.33 221.087 1184.33 216.667V150C1184.33 138.833 1181.5 128.9 1175.6 120.933C1170.17 113.709 1162.57 108.412 1153.92 105.817C1138.88 101.1 1122.23 103.717 1111.12 108.483C1107.56 110.014 1104.09 111.75 1100.73 113.683C1100.03 109.843 1098.01 106.37 1095.01 103.869C1092.02 101.369 1088.24 99.9994 1084.33 100Z" class="bg-elements"/>
<path d="M212.456 199.28C203.581 199.28 195.773 197.403 189.032 193.648C182.376 189.808 177.213 184.432 173.544 177.52C169.875 170.523 168.04 162.459 168.04 153.328C168.04 144.112 169.875 136.005 173.544 129.008C177.213 122.011 182.376 116.635 189.032 112.88C195.773 109.04 203.539 107.12 212.328 107.12C219.667 107.12 226.408 108.357 232.552 110.832C238.781 113.307 243.645 116.763 247.144 121.2C247.827 121.968 248.168 122.907 248.168 124.016C248.168 125.381 247.571 126.491 246.376 127.344C245.608 127.856 244.755 128.112 243.816 128.112C242.195 128.112 240.829 127.472 239.72 126.192C236.989 122.693 233.277 120.005 228.584 118.128C223.891 116.251 218.472 115.312 212.328 115.312C205.245 115.312 199.101 116.848 193.896 119.92C188.691 122.992 184.68 127.387 181.864 133.104C179.133 138.821 177.768 145.563 177.768 153.328C177.768 161.008 179.133 167.707 181.864 173.424C184.68 179.056 188.691 183.408 193.896 186.48C199.187 189.552 205.373 191.088 212.456 191.088C219.027 191.088 224.744 190.149 229.608 188.272C234.557 186.309 238.44 183.621 241.256 180.208C242.536 178.843 243.901 178.16 245.352 178.16C246.376 178.16 247.229 178.459 247.912 179.056C249.107 180.08 249.704 181.189 249.704 182.384C249.704 183.408 249.32 184.389 248.552 185.328C245.053 189.595 240.061 193.008 233.576 195.568C227.176 198.043 220.136 199.28 212.456 199.28ZM294.207 199.28C286.783 199.28 280.426 197.787 275.135 194.8C269.844 191.813 265.834 187.845 263.103 182.896C260.458 177.861 259.135 172.443 259.135 166.64C259.135 160.837 260.458 155.461 263.103 150.512C265.834 145.477 269.844 141.467 275.135 138.48C280.426 135.493 286.783 134 294.207 134C301.631 134 307.946 135.493 313.151 138.48C318.442 141.467 322.41 145.477 325.055 150.512C327.786 155.461 329.151 160.837 329.151 166.64C329.151 172.443 327.786 177.861 325.055 182.896C322.41 187.845 318.442 191.813 313.151 194.8C307.946 197.787 301.631 199.28 294.207 199.28ZM294.207 191.216C301.887 191.216 308.031 189.04 312.639 184.688C317.332 180.336 319.679 174.32 319.679 166.64C319.679 158.96 317.332 152.944 312.639 148.592C308.031 144.24 301.887 142.064 294.207 142.064C286.442 142.064 280.212 144.24 275.519 148.592C270.911 152.944 268.607 158.96 268.607 166.64C268.607 174.32 270.911 180.336 275.519 184.688C280.212 189.04 286.442 191.216 294.207 191.216ZM346.696 199.28C345.245 199.28 344.093 198.853 343.24 198C342.472 197.061 342.088 195.781 342.088 194.16V139.12C342.088 137.499 342.472 136.261 343.24 135.408C344.008 134.469 345.16 134 346.696 134C348.147 134 349.256 134.469 350.024 135.408C350.877 136.261 351.304 137.499 351.304 139.12V146.672C354.461 142.491 358.259 139.333 362.696 137.2C367.219 135.067 372.168 134 377.544 134C385.651 134 391.88 136.261 396.232 140.784C400.669 145.307 402.888 151.792 402.888 160.24V194.16C402.888 195.781 402.461 197.061 401.608 198C400.755 198.853 399.603 199.28 398.152 199.28C396.616 199.28 395.464 198.853 394.696 198C393.928 197.061 393.544 195.781 393.544 194.16V160.24C393.544 148.123 387.827 142.064 376.392 142.064C368.883 142.064 362.824 144.283 358.216 148.72C353.693 153.157 351.432 159.045 351.432 166.384V194.16C351.432 195.696 351.005 196.933 350.152 197.872C349.384 198.811 348.232 199.28 346.696 199.28ZM451.57 199.28C440.477 199.28 431.901 196.421 425.842 190.704C419.783 184.987 416.754 176.88 416.754 166.384C416.754 156.315 419.826 148.421 425.97 142.704C432.114 136.901 440.519 134 451.186 134C457.757 134 463.602 135.067 468.722 137.2C473.842 139.248 477.81 142.192 480.626 146.032C483.527 149.787 484.978 154.096 484.978 158.96C484.978 162.544 483.954 165.317 481.906 167.28C479.943 169.243 477.213 170.224 473.714 170.224H426.354C426.354 176.795 428.573 181.957 433.01 185.712C437.447 189.381 443.634 191.216 451.57 191.216C456.434 191.216 460.615 190.704 464.114 189.68C467.613 188.571 470.898 186.821 473.97 184.432C475.591 183.067 476.914 182.384 477.938 182.384C478.706 182.384 479.431 182.725 480.114 183.408C481.309 184.432 481.906 185.499 481.906 186.608C481.906 187.461 481.394 188.4 480.37 189.424C476.871 192.752 472.775 195.227 468.082 196.848C463.389 198.469 457.885 199.28 451.57 199.28ZM470.898 162.672C472.434 162.672 473.586 162.373 474.354 161.776C475.122 161.093 475.506 159.899 475.506 158.192C475.506 155.12 474.482 152.347 472.434 149.872C470.386 147.397 467.485 145.477 463.73 144.112C460.061 142.747 455.879 142.064 451.186 142.064C443.591 142.064 437.575 143.941 433.138 147.696C428.786 151.365 426.61 156.357 426.61 162.672H470.898ZM530.564 199.28C523.737 199.28 517.721 197.957 512.516 195.312C507.311 192.581 503.3 188.741 500.484 183.792C497.668 178.843 496.26 173.083 496.26 166.512C496.26 160.027 497.668 154.352 500.484 149.488C503.3 144.539 507.311 140.741 512.516 138.096C517.721 135.365 523.737 134 530.564 134C536.964 134 542.511 134.896 547.204 136.688C551.897 138.48 555.609 141.125 558.34 144.624C559.023 145.563 559.364 146.459 559.364 147.312C559.364 148.592 558.724 149.744 557.444 150.768C556.847 151.28 556.079 151.536 555.14 151.536C553.689 151.536 552.324 150.896 551.044 149.616C546.521 144.581 539.695 142.064 530.564 142.064C522.628 142.064 516.484 144.197 512.132 148.464C507.865 152.645 505.732 158.661 505.732 166.512C505.732 174.277 507.908 180.336 512.26 184.688C516.612 189.04 522.713 191.216 530.564 191.216C534.916 191.216 538.927 190.576 542.596 189.296C546.265 187.931 549.295 186.011 551.684 183.536C553.135 182.085 554.5 181.36 555.78 181.36C556.548 181.36 557.401 181.701 558.34 182.384C559.535 183.408 560.132 184.517 560.132 185.712C560.132 186.821 559.663 187.76 558.724 188.528C554.543 192.283 550.191 195.013 545.668 196.72C541.145 198.427 536.111 199.28 530.564 199.28ZM614.212 185.328C615.151 186.096 615.62 186.992 615.62 188.016C615.62 188.869 615.236 189.893 614.468 191.088C612.676 193.563 610.201 195.568 607.044 197.104C603.887 198.555 600.644 199.28 597.316 199.28C591.684 199.28 587.247 197.616 584.004 194.288C580.761 190.96 579.14 186.395 579.14 180.592V143.088H572.228C568.815 143.088 567.108 141.765 567.108 139.12C567.108 137.925 567.535 136.987 568.388 136.304C569.327 135.621 570.607 135.28 572.228 135.28H579.14V113.392C579.14 111.771 579.524 110.533 580.292 109.68C581.145 108.741 582.34 108.272 583.876 108.272C585.327 108.272 586.436 108.741 587.204 109.68C588.057 110.533 588.484 111.771 588.484 113.392V135.28H605.892C607.428 135.28 608.623 135.621 609.476 136.304C610.415 136.901 610.884 137.84 610.884 139.12C610.884 141.765 609.22 143.088 605.892 143.088H588.484V181.36C588.484 187.931 591.556 191.216 597.7 191.216C599.663 191.216 601.455 190.832 603.076 190.064C604.697 189.296 606.319 188.059 607.94 186.352C609.22 184.987 610.457 184.304 611.652 184.304C612.42 184.304 613.273 184.645 614.212 185.328ZM660.695 199.28C649.602 199.28 641.026 196.421 634.967 190.704C628.908 184.987 625.879 176.88 625.879 166.384C625.879 156.315 628.951 148.421 635.095 142.704C641.239 136.901 649.644 134 660.311 134C666.882 134 672.727 135.067 677.847 137.2C682.967 139.248 686.935 142.192 689.751 146.032C692.652 149.787 694.103 154.096 694.103 158.96C694.103 162.544 693.079 165.317 691.031 167.28C689.068 169.243 686.338 170.224 682.839 170.224H635.479C635.479 176.795 637.698 181.957 642.135 185.712C646.572 189.381 652.759 191.216 660.695 191.216C665.559 191.216 669.74 190.704 673.239 189.68C676.738 188.571 680.023 186.821 683.095 184.432C684.716 183.067 686.039 182.384 687.063 182.384C687.831 182.384 688.556 182.725 689.239 183.408C690.434 184.432 691.031 185.499 691.031 186.608C691.031 187.461 690.519 188.4 689.495 189.424C685.996 192.752 681.9 195.227 677.207 196.848C672.514 198.469 667.01 199.28 660.695 199.28ZM680.023 162.672C681.559 162.672 682.711 162.373 683.479 161.776C684.247 161.093 684.631 159.899 684.631 158.192C684.631 155.12 683.607 152.347 681.559 149.872C679.511 147.397 676.61 145.477 672.855 144.112C669.186 142.747 665.004 142.064 660.311 142.064C652.716 142.064 646.7 143.941 642.263 147.696C637.911 151.365 635.735 156.357 635.735 162.672H680.023ZM711.017 170.864C709.396 170.864 708.116 170.523 707.177 169.84C706.324 169.072 705.897 168.091 705.897 166.896C705.897 164.165 707.604 162.8 711.017 162.8H748.905C752.318 162.8 754.025 164.165 754.025 166.896C754.025 168.091 753.556 169.072 752.617 169.84C751.764 170.523 750.526 170.864 748.905 170.864H711.017ZM796.474 199.28C790.501 199.28 784.869 198.171 779.578 195.952C774.287 193.648 770.106 190.491 767.034 186.48C766.437 185.627 766.138 184.773 766.138 183.92C766.138 183.067 766.351 182.341 766.778 181.744C767.29 181.061 767.93 180.549 768.698 180.208C769.381 179.952 769.935 179.824 770.362 179.824C771.13 179.824 771.77 180.037 772.282 180.464C772.879 180.805 773.562 181.403 774.33 182.256C779.877 188.144 787.258 191.088 796.474 191.088C800.911 191.088 804.495 190.32 807.226 188.784C809.957 187.248 811.322 185.115 811.322 182.384C811.322 180.421 810.767 178.843 809.658 177.648C808.634 176.368 806.842 175.216 804.282 174.192C801.807 173.083 797.711 171.547 791.994 169.584C786.447 167.707 782.095 165.915 778.938 164.208C775.781 162.501 773.434 160.581 771.898 158.448C770.362 156.229 769.594 153.541 769.594 150.384C769.594 145.435 771.727 141.467 775.994 138.48C780.346 135.493 786.106 134 793.274 134C798.565 134 803.471 134.939 807.994 136.816C812.517 138.608 815.93 141.04 818.234 144.112C818.917 145.051 819.258 145.947 819.258 146.8C819.258 148.08 818.575 149.104 817.21 149.872C816.357 150.384 815.503 150.64 814.65 150.64C813.199 150.64 811.834 150 810.554 148.72C808.335 146.501 805.903 144.88 803.258 143.856C800.613 142.747 797.242 142.192 793.146 142.192C788.623 142.192 785.167 142.917 782.778 144.368C780.389 145.819 779.194 147.867 779.194 150.512C779.194 152.475 779.663 154.053 780.602 155.248C781.626 156.357 783.205 157.381 785.338 158.32C787.557 159.173 791.397 160.496 796.858 162.288C803.002 164.336 807.738 166.299 811.066 168.176C814.479 169.968 816.911 171.973 818.362 174.192C819.898 176.411 820.666 179.141 820.666 182.384C820.666 187.504 818.405 191.6 813.882 194.672C809.445 197.744 803.642 199.28 796.474 199.28ZM866.695 199.28C855.602 199.28 847.026 196.421 840.967 190.704C834.908 184.987 831.879 176.88 831.879 166.384C831.879 156.315 834.951 148.421 841.095 142.704C847.239 136.901 855.644 134 866.311 134C872.882 134 878.727 135.067 883.847 137.2C888.967 139.248 892.935 142.192 895.751 146.032C898.652 149.787 900.103 154.096 900.103 158.96C900.103 162.544 899.079 165.317 897.031 167.28C895.068 169.243 892.338 170.224 888.839 170.224H841.479C841.479 176.795 843.698 181.957 848.135 185.712C852.572 189.381 858.759 191.216 866.695 191.216C871.559 191.216 875.74 190.704 879.239 189.68C882.738 188.571 886.023 186.821 889.095 184.432C890.716 183.067 892.039 182.384 893.063 182.384C893.831 182.384 894.556 182.725 895.239 183.408C896.434 184.432 897.031 185.499 897.031 186.608C897.031 187.461 896.519 188.4 895.495 189.424C891.996 192.752 887.9 195.227 883.207 196.848C878.514 198.469 873.01 199.28 866.695 199.28ZM886.023 162.672C887.559 162.672 888.711 162.373 889.479 161.776C890.247 161.093 890.631 159.899 890.631 158.192C890.631 155.12 889.607 152.347 887.559 149.872C885.511 147.397 882.61 145.477 878.855 144.112C875.186 142.747 871.004 142.064 866.311 142.064C858.716 142.064 852.7 143.941 848.263 147.696C843.911 151.365 841.735 156.357 841.735 162.672H886.023Z" class="text-color"/>
</svg>
