<svg width="2101" height="924" viewBox="0 0 2101 924" fill="none" xmlns="http://www.w3.org/2000/svg">
<style>
    /* Cor padrão (Dark Mode) */
    .main-color { fill: #0A771A; stroke: #0A771A; }
    .bg-elements { fill: #1E1E1E; stroke: #1E1E1E; }
    .text-color { fill: #fff9f3; }
    .logo { fill: #fff9f3; }

    /* Cores para Dark Mode */
    @media (prefers-color-scheme: light) {
      .main-color { fill: ##0A771A; stroke: ##0A771A; } /* Um verde mais vibrante para contraste */
      .bg-elements { fill: #FFF9F3; stroke: #FFF9F3; }
      .text-color { fill: black; }
    }
</style>
<rect width="2101" height="924" rx="80" class="bg-elements"/>
<path d="M621.672 300.28C620.136 300.28 618.941 299.853 618.088 299C617.32 298.061 616.936 296.781 616.936 295.16V217.336H587.624C586.088 217.336 584.851 217.037 583.912 216.44C583.059 215.757 582.632 214.776 582.632 213.496C582.632 210.765 584.296 209.4 587.624 209.4H655.976C659.304 209.4 660.968 210.765 660.968 213.496C660.968 214.691 660.541 215.629 659.688 216.312C658.835 216.995 657.597 217.336 655.976 217.336H626.664V295.16C626.664 296.781 626.195 298.061 625.256 299C624.403 299.853 623.208 300.28 621.672 300.28ZM693.252 299C688.047 299 683.993 297.635 681.092 294.904C678.191 292.173 676.74 288.333 676.74 283.384V224.76C676.74 219.981 678.148 216.227 680.964 213.496C683.865 210.765 687.876 209.4 692.996 209.4H732.676C736.004 209.4 737.668 210.765 737.668 213.496C737.668 214.691 737.241 215.629 736.388 216.312C735.535 216.995 734.297 217.336 732.676 217.336H693.124C691.076 217.336 689.412 218.019 688.132 219.384C686.937 220.749 686.34 222.541 686.34 224.76V249.208H722.948C726.276 249.208 727.94 250.573 727.94 253.304C727.94 254.584 727.471 255.565 726.532 256.248C725.679 256.931 724.484 257.272 722.948 257.272H686.34V283.64C686.34 285.859 686.937 287.651 688.132 289.016C689.412 290.381 691.076 291.064 693.124 291.064H735.492C738.82 291.064 740.484 292.387 740.484 295.032C740.484 296.312 740.015 297.293 739.076 297.976C738.223 298.659 737.028 299 735.492 299H693.252ZM793.206 300.28C784.331 300.28 776.523 298.403 769.782 294.648C763.126 290.808 757.963 285.432 754.294 278.52C750.625 271.523 748.79 263.459 748.79 254.328C748.79 245.112 750.625 237.005 754.294 230.008C757.963 223.011 763.126 217.635 769.782 213.88C776.523 210.04 784.289 208.12 793.078 208.12C800.417 208.12 807.158 209.357 813.302 211.832C819.531 214.307 824.395 217.763 827.894 222.2C828.577 222.968 828.918 223.907 828.918 225.016C828.918 226.381 828.321 227.491 827.126 228.344C826.358 228.856 825.505 229.112 824.566 229.112C822.945 229.112 821.579 228.472 820.47 227.192C817.739 223.693 814.027 221.005 809.334 219.128C804.641 217.251 799.222 216.312 793.078 216.312C785.995 216.312 779.851 217.848 774.646 220.92C769.441 223.992 765.43 228.387 762.614 234.104C759.883 239.821 758.518 246.563 758.518 254.328C758.518 262.008 759.883 268.707 762.614 274.424C765.43 280.056 769.441 284.408 774.646 287.48C779.937 290.552 786.123 292.088 793.206 292.088C799.777 292.088 805.494 291.149 810.358 289.272C815.307 287.309 819.19 284.621 822.006 281.208C823.286 279.843 824.651 279.16 826.102 279.16C827.126 279.16 827.979 279.459 828.662 280.056C829.857 281.08 830.454 282.189 830.454 283.384C830.454 284.408 830.07 285.389 829.302 286.328C825.803 290.595 820.811 294.008 814.326 296.568C807.926 299.043 800.886 300.28 793.206 300.28ZM851.583 300.28C850.132 300.28 848.98 299.853 848.127 299C847.274 298.061 846.847 296.781 846.847 295.16V242.936C846.847 235.853 848.34 229.709 851.327 224.504C854.399 219.213 858.751 215.16 864.383 212.344C870.015 209.528 876.628 208.12 884.223 208.12C891.818 208.12 898.388 209.528 903.935 212.344C909.567 215.16 913.876 219.213 916.863 224.504C919.935 229.709 921.471 235.853 921.471 242.936V295.16C921.471 296.781 921.044 298.061 920.191 299C919.423 299.853 918.271 300.28 916.735 300.28C915.284 300.28 914.09 299.853 913.151 299C912.298 298.061 911.871 296.781 911.871 295.16V242.552C911.871 234.275 909.439 227.832 904.575 223.224C899.711 218.616 892.927 216.312 884.223 216.312C875.69 216.312 868.906 218.659 863.871 223.352C858.922 228.045 856.447 234.445 856.447 242.552V295.16C856.447 296.781 856.02 298.061 855.167 299C854.314 299.853 853.119 300.28 851.583 300.28ZM980.23 300.28C971.611 300.28 963.846 298.403 956.934 294.648C950.022 290.808 944.561 285.389 940.55 278.392C936.625 271.395 934.662 263.331 934.662 254.2C934.662 244.984 936.625 236.92 940.55 230.008C944.561 223.011 950.022 217.635 956.934 213.88C963.846 210.04 971.611 208.12 980.23 208.12C988.849 208.12 996.614 210.04 1003.53 213.88C1010.44 217.635 1015.86 223.011 1019.78 230.008C1023.79 236.92 1025.8 244.984 1025.8 254.2C1025.8 263.331 1023.79 271.395 1019.78 278.392C1015.86 285.389 1010.44 290.808 1003.53 294.648C996.614 298.403 988.849 300.28 980.23 300.28ZM980.23 292.088C987.142 292.088 993.286 290.595 998.662 287.608C1004.12 284.621 1008.39 280.312 1011.46 274.68C1014.62 268.963 1016.2 262.136 1016.2 254.2C1016.2 246.179 1014.58 239.309 1011.33 233.592C1008.18 227.875 1003.82 223.565 998.278 220.664C992.817 217.763 986.715 216.312 979.974 216.312C973.147 216.312 967.003 217.805 961.542 220.792C956.166 223.779 951.942 228.131 948.87 233.848C945.798 239.565 944.262 246.349 944.262 254.2C944.262 262.136 945.798 268.963 948.87 274.68C952.027 280.312 956.294 284.621 961.67 287.608C967.131 290.595 973.318 292.088 980.23 292.088ZM1059.76 299C1054.55 299 1050.5 297.635 1047.6 294.904C1044.7 292.088 1043.25 288.248 1043.25 283.384V213.24C1043.25 211.619 1043.67 210.381 1044.53 209.528C1045.38 208.589 1046.53 208.12 1047.98 208.12C1049.52 208.12 1050.71 208.589 1051.57 209.528C1052.42 210.381 1052.85 211.619 1052.85 213.24V283.64C1052.85 285.859 1053.44 287.651 1054.64 289.016C1055.92 290.381 1057.58 291.064 1059.63 291.064H1102.25C1105.58 291.064 1107.25 292.387 1107.25 295.032C1107.25 296.312 1106.82 297.293 1105.97 297.976C1105.11 298.659 1103.88 299 1102.25 299H1059.76ZM1155.86 300.28C1147.24 300.28 1139.47 298.403 1132.56 294.648C1125.65 290.808 1120.19 285.389 1116.18 278.392C1112.25 271.395 1110.29 263.331 1110.29 254.2C1110.29 244.984 1112.25 236.92 1116.18 230.008C1120.19 223.011 1125.65 217.635 1132.56 213.88C1139.47 210.04 1147.24 208.12 1155.86 208.12C1164.47 208.12 1172.24 210.04 1179.15 213.88C1186.06 217.635 1191.48 223.011 1195.41 230.008C1199.42 236.92 1201.42 244.984 1201.42 254.2C1201.42 263.331 1199.42 271.395 1195.41 278.392C1191.48 285.389 1186.06 290.808 1179.15 294.648C1172.24 298.403 1164.47 300.28 1155.86 300.28ZM1155.86 292.088C1162.77 292.088 1168.91 290.595 1174.29 287.608C1179.75 284.621 1184.02 280.312 1187.09 274.68C1190.24 268.963 1191.82 262.136 1191.82 254.2C1191.82 246.179 1190.2 239.309 1186.96 233.592C1183.8 227.875 1179.45 223.565 1173.9 220.664C1168.44 217.763 1162.34 216.312 1155.6 216.312C1148.77 216.312 1142.63 217.805 1137.17 220.792C1131.79 223.779 1127.57 228.131 1124.5 233.848C1121.42 239.565 1119.89 246.349 1119.89 254.2C1119.89 262.136 1121.42 268.963 1124.5 274.68C1127.65 280.312 1131.92 284.621 1137.3 287.608C1142.76 290.595 1148.94 292.088 1155.86 292.088ZM1260.09 300.28C1251.04 300.28 1243.15 298.403 1236.41 294.648C1229.67 290.893 1224.46 285.56 1220.79 278.648C1217.12 271.651 1215.29 263.544 1215.29 254.328C1215.29 245.112 1217.12 237.005 1220.79 230.008C1224.46 223.011 1229.67 217.635 1236.41 213.88C1243.23 210.04 1251.13 208.12 1260.09 208.12C1267.34 208.12 1274.08 209.357 1280.31 211.832C1286.63 214.307 1291.45 217.72 1294.78 222.072C1295.54 222.925 1295.93 223.949 1295.93 225.144C1295.93 226.509 1295.33 227.576 1294.14 228.344C1293.37 228.856 1292.51 229.112 1291.58 229.112C1290.81 229.112 1290.04 228.941 1289.27 228.6C1288.5 228.173 1287.86 227.661 1287.35 227.064C1284.71 223.736 1281.04 221.133 1276.34 219.256C1271.65 217.293 1266.23 216.312 1260.09 216.312C1252.92 216.312 1246.69 217.848 1241.4 220.92C1236.11 223.992 1232.06 228.387 1229.24 234.104C1226.42 239.821 1225.02 246.563 1225.02 254.328C1225.02 266.104 1228.13 275.363 1234.36 282.104C1240.59 288.76 1249.16 292.088 1260.09 292.088C1265.8 292.088 1270.88 291.192 1275.32 289.4C1279.76 287.523 1283.21 284.963 1285.69 281.72C1288.25 278.392 1289.53 274.637 1289.53 270.456V266.104C1289.53 263.8 1289.06 262.136 1288.12 261.112C1287.27 260.088 1285.6 259.576 1283.13 259.576H1263.67C1260.43 259.576 1258.81 258.296 1258.81 255.736C1258.81 253.005 1260.43 251.64 1263.67 251.64H1284.79C1289.66 251.64 1293.28 252.707 1295.67 254.84C1298.06 256.973 1299.26 260.259 1299.26 264.696V269.56C1299.26 275.277 1297.55 280.483 1294.14 285.176C1290.72 289.869 1286.03 293.581 1280.06 296.312C1274.08 298.957 1267.43 300.28 1260.09 300.28ZM1325.07 300.28C1323.62 300.28 1322.47 299.853 1321.61 299C1320.76 298.061 1320.33 296.781 1320.33 295.16V213.24C1320.33 211.619 1320.76 210.381 1321.61 209.528C1322.47 208.589 1323.62 208.12 1325.07 208.12C1326.61 208.12 1327.8 208.589 1328.65 209.528C1329.51 210.467 1329.93 211.704 1329.93 213.24V295.16C1329.93 296.696 1329.51 297.933 1328.65 298.872C1327.8 299.811 1326.61 300.28 1325.07 300.28ZM1358.46 300.28C1357.01 300.28 1355.86 299.853 1355.01 299C1354.15 298.061 1353.73 296.781 1353.73 295.16V245.112C1353.73 233.507 1356.97 224.461 1363.45 217.976C1370.02 211.405 1379.11 208.12 1390.72 208.12C1402.24 208.12 1411.28 211.405 1417.85 217.976C1424.42 224.547 1427.71 233.592 1427.71 245.112V295.16C1427.71 296.781 1427.28 298.061 1426.43 299C1425.58 299.853 1424.38 300.28 1422.85 300.28C1421.39 300.28 1420.2 299.853 1419.26 299C1418.41 298.061 1417.98 296.781 1417.98 295.16V266.36H1363.33V295.16C1363.33 296.781 1362.9 298.061 1362.05 299C1361.19 299.853 1360 300.28 1358.46 300.28ZM1417.98 258.424V244.728C1417.98 235.597 1415.63 228.6 1410.94 223.736C1406.25 218.787 1399.51 216.312 1390.72 216.312C1381.84 216.312 1375.06 218.744 1370.37 223.608C1365.67 228.472 1363.33 235.512 1363.33 244.728V258.424H1417.98ZM1483.97 300.28C1475.78 300.28 1468.23 298.915 1461.31 296.184C1454.49 293.368 1449.15 289.528 1445.31 284.664C1444.63 283.811 1444.29 282.915 1444.29 281.976C1444.29 280.781 1444.93 279.629 1446.21 278.52C1446.89 278.008 1447.62 277.752 1448.39 277.752C1449.92 277.752 1451.29 278.477 1452.48 279.928C1455.98 283.768 1460.38 286.755 1465.67 288.888C1471.04 290.936 1477.14 291.96 1483.97 291.96C1491.48 291.96 1497.28 290.595 1501.38 287.864C1505.47 285.048 1507.52 281.08 1507.52 275.96C1507.52 271.523 1505.52 267.939 1501.51 265.208C1497.58 262.477 1490.88 260.045 1481.41 257.912C1469.04 255.181 1460.12 251.768 1454.66 247.672C1449.28 243.491 1446.59 237.987 1446.59 231.16C1446.59 224.077 1449.58 218.488 1455.55 214.392C1461.61 210.211 1469.76 208.12 1480 208.12C1487.77 208.12 1494.76 209.485 1500.99 212.216C1507.31 214.947 1511.79 218.616 1514.43 223.224C1514.95 224.077 1515.2 224.888 1515.2 225.656C1515.2 227.021 1514.48 228.216 1513.03 229.24C1512.43 229.581 1511.75 229.752 1510.98 229.752C1509.1 229.752 1507.65 229.027 1506.63 227.576C1504.15 223.992 1500.65 221.261 1496.13 219.384C1491.61 217.421 1486.23 216.44 1480 216.44C1464.22 216.44 1456.32 221.347 1456.32 231.16C1456.32 234.147 1457.13 236.664 1458.75 238.712C1460.38 240.675 1462.98 242.467 1466.56 244.088C1470.23 245.624 1475.31 247.16 1481.79 248.696C1494.42 251.683 1503.51 255.309 1509.06 259.576C1514.6 263.757 1517.38 269.219 1517.38 275.96C1517.38 283.469 1514.35 289.4 1508.29 293.752C1502.32 298.104 1494.21 300.28 1483.97 300.28Z" class="text-color"/>
<g clip-path="url(#clip0_10_149)">
<ellipse cx="796" cy="607.5" rx="147" ry="149.625" class="logo"/>
<path d="M806.992 477.551C800.338 473.808 791.662 473.825 785.002 477.551C751.646 495.959 718.289 514.373 684.926 532.772C678.435 536.188 674.056 543.159 674.126 550.395V661.62C674.079 668.997 678.683 676.036 685.343 679.404C694.925 684.503 704.236 690.118 713.992 694.877C725.261 700.415 739.36 701.639 750.767 695.864C760.027 691.078 764.14 680.433 764.128 670.65C764.203 633.943 764.14 597.235 764.157 560.528C764.377 558.896 763.152 557.153 761.372 557.192C757.11 557.124 752.841 557.153 748.578 557.181C746.968 557.029 745.396 558.367 745.517 559.986C745.46 596.456 745.529 632.938 745.483 669.414C745.576 674.46 742.167 679.309 737.304 681.013C726.074 684.95 694.019 664.136 694.019 664.136C692.842 663.592 692.095 662.316 692.21 661.048C692.21 624.353 692.216 587.656 692.21 550.966C692.049 549.487 692.96 548.154 694.319 547.55C727.566 529.251 760.795 510.905 794.042 492.594C795.197 491.823 796.806 491.826 797.958 492.6C831.205 510.905 864.44 529.234 897.692 547.535C899.056 548.138 899.928 549.492 899.79 550.966C899.784 587.656 899.801 624.353 899.778 661.043C899.877 662.342 899.206 663.6 897.993 664.17C865.057 682.371 831.746 699.984 799.108 718.714C797.684 719.53 796.07 720.456 794.475 719.556C785.892 714.808 777.413 709.876 768.858 705.083C767.928 704.502 766.744 704.253 765.774 704.903C761.939 706.924 758.331 708.561 753.927 710.304C747.741 712.753 748.729 713.754 754.308 717.005C764.312 722.666 774.333 728.305 784.337 733.973C790.923 738.083 799.772 738.375 806.57 734.577C839.932 716.192 873.284 697.785 906.652 679.4C913.293 676.013 917.921 669.002 917.874 661.619V550.395C917.939 543.306 913.727 536.459 907.431 532.993C873.959 514.495 840.47 496.037 806.992 477.551Z" fill="#0A771A"/>
<path d="M857.33 561.058C844.236 554.053 828.659 553.68 814.108 554.596C803.596 555.635 792.54 558.535 784.881 566.071C777.026 573.646 775.316 585.879 779.047 595.767C781.721 602.755 788.451 607.299 795.411 609.703C804.377 612.868 813.793 613.847 823.212 614.826C831.803 615.718 840.397 616.612 848.655 619.164C852.028 620.282 855.956 621.992 856.989 625.662C857.943 630.009 856.897 635.061 853.368 638.08C842.16 646.952 810.98 645.593 799.906 638.61C795.428 635.635 793.499 630.369 792.714 625.351C792.627 623.787 791.368 622.353 789.67 622.472C785.418 622.421 781.167 622.433 776.915 622.466C775.432 622.342 773.89 623.397 773.808 624.911C772.935 647.896 794.044 657.916 813.849 660.122C825.164 661.2 836.727 661.138 847.869 658.71C856.245 656.803 864.643 653.291 870.408 646.84C877.518 639 878.916 627.327 875.728 617.561C873.29 610.274 866.324 605.6 859.203 603.195C849.518 599.874 838.041 598.089 829.27 597.254C816.521 596.04 801.371 596.536 797.763 588.159C796.323 583.772 797.548 578.325 801.579 575.627C812.245 568.392 833.953 569.353 844.998 574.758C850.07 577.298 853.009 582.514 854.223 587.78C854.448 589.327 855.488 590.941 857.279 590.874C861.501 590.958 865.724 590.896 869.945 590.902C871.396 591.003 872.984 590.184 873.267 588.699C873.088 577.693 867.468 566.426 857.33 561.058Z" fill="#0A771A"/>
</g>
<g clip-path="url(#clip1_10_149)">
<path d="M137 456H437V756H137V456Z" fill="#0A771A"/>
<path d="M215.881 706.701L238.838 692.808C243.268 700.66 247.297 707.305 256.961 707.305C266.225 707.305 272.067 703.682 272.067 689.586V593.729H300.259V689.985C300.259 719.184 283.142 732.476 258.17 732.476C235.617 732.476 222.526 720.796 215.88 706.699M315.571 703.68L338.526 690.39C344.57 700.258 352.423 707.508 366.317 707.508C378 707.508 385.448 701.667 385.448 693.612C385.448 683.946 377.796 680.522 364.907 674.885L357.861 671.862C337.521 663.205 324.029 652.33 324.029 629.373C324.029 608.228 340.139 592.117 365.312 592.117C383.234 592.117 396.123 598.36 405.385 614.672L383.434 628.769C378.6 620.11 373.366 616.687 365.311 616.687C357.054 616.687 351.818 621.923 351.818 628.769C351.818 637.227 357.054 640.652 369.136 645.888L376.183 648.908C400.148 659.18 413.64 669.65 413.64 693.21C413.64 718.585 393.704 732.479 366.921 732.479C340.742 732.479 323.826 719.994 315.57 703.682" class="logo"/>
</g>
<g clip-path="url(#clip2_10_149)">
<circle cx="1305" cy="606" r="150" class="logo"/>
<path d="M1289.18 664.228C1294.34 664.463 1299.61 664.631 1304.94 664.631C1310.33 664.631 1315.66 664.519 1320.88 664.228C1315.66 670.978 1310.5 676.95 1305.05 682.641L1305.12 682.566C1299.69 676.941 1294.48 670.959 1289.57 664.734L1289.18 664.228ZM1235.77 656.728C1245.92 659.306 1258.3 661.5 1270.94 662.85L1272.17 662.953C1279.9 673.575 1287.72 682.922 1296.11 691.716L1296.01 691.603C1283.72 705.319 1267.13 714.956 1248.38 718.416L1247.86 718.491C1247.82 718.491 1247.78 718.491 1247.75 718.491C1245.42 718.491 1243.23 717.919 1241.31 716.906L1241.38 716.944C1233.58 712.491 1230.2 695.456 1232.83 673.566C1233.46 668.175 1234.49 662.503 1235.76 656.719L1235.77 656.728ZM1374.36 656.606C1375.46 661.05 1376.5 666.713 1377.24 672.469L1377.33 673.275C1380.02 695.156 1376.7 712.172 1368.97 716.719C1367.24 717.675 1365.18 718.238 1362.98 718.238C1362.77 718.238 1362.55 718.228 1362.34 718.219H1362.37C1343.12 714.703 1326.54 705.131 1314.28 691.584L1314.22 691.509C1322.46 682.856 1330.22 673.528 1337.33 663.713L1337.88 662.925C1351.72 661.481 1364.12 659.25 1376.2 656.203L1374.36 656.597V656.606ZM1246.73 621.619C1249.07 626.213 1251.53 630.788 1254.23 635.381C1256.92 639.95 1259.67 644.413 1262.48 648.769C1254.35 647.578 1246.49 646.078 1238.98 644.25C1241.09 636.872 1243.73 629.231 1246.72 621.6L1246.73 621.619ZM1363.24 621.384C1366.34 629.081 1368.98 636.759 1371.16 644.203C1363.66 646.041 1355.74 647.597 1347.54 648.769C1350.36 644.372 1353.17 639.844 1355.8 635.203C1358.44 630.638 1360.9 625.969 1363.26 621.375L1363.24 621.384ZM1226.43 571.238C1230.52 585.094 1234.9 596.681 1240.01 607.856L1239.31 606.15C1234.94 615.572 1230.62 627.094 1227.08 638.953L1226.59 640.875C1219.97 638.841 1214.64 636.844 1209.46 634.603L1210.54 635.016C1190.25 626.381 1177.12 615.028 1177.12 606.028C1177.12 597.028 1190.25 585.619 1210.54 577.022C1215.46 574.913 1220.86 573.009 1226.43 571.238ZM1383.36 571.191C1389.03 572.944 1394.42 574.903 1399.46 577.022C1419.75 585.694 1432.88 597.028 1432.88 606.028C1432.82 615.028 1419.69 626.409 1399.41 635.025C1394.48 637.134 1389.09 639.028 1383.53 640.8C1379.41 626.897 1375.02 615.319 1369.93 604.125L1370.64 605.888C1374.99 596.475 1379.33 584.953 1382.86 573.094L1383.36 571.163V571.191ZM1347.47 563.288C1355.62 564.497 1363.46 565.978 1370.97 567.825C1368.86 575.231 1366.23 582.844 1363.24 590.475C1360.89 585.909 1358.44 581.306 1355.74 576.722C1353.1 572.128 1350.29 567.656 1347.48 563.297L1347.47 563.288ZM1262.42 563.288C1259.61 567.703 1256.79 572.222 1254.17 576.881C1251.53 581.447 1249.07 586.041 1246.73 590.634C1243.62 582.947 1240.99 575.288 1238.8 567.825C1246.3 566.072 1254.21 564.506 1262.41 563.306L1262.42 563.288ZM1305 560.306C1313.67 560.306 1322.31 560.7 1330.8 561.394C1335.56 568.213 1340.18 575.475 1344.66 583.181C1349.01 590.681 1352.99 598.281 1356.58 605.981C1352.97 613.659 1349.02 621.328 1344.71 628.828C1340.26 636.563 1335.66 643.922 1330.88 650.738C1322.35 651.478 1313.71 651.881 1304.99 651.881C1296.32 651.881 1287.68 651.469 1279.19 650.794C1274.44 643.978 1269.8 636.684 1265.33 629.006C1260.98 621.506 1257 613.906 1253.41 606.206C1256.96 598.509 1260.98 590.822 1265.28 583.313C1269.73 575.578 1274.33 568.247 1279.11 561.431C1287.64 560.681 1296.28 560.288 1305 560.288V560.306ZM1304.82 529.547C1310.26 535.172 1315.47 541.144 1320.38 547.369L1320.75 547.866C1315.59 547.631 1310.33 547.472 1304.99 547.472C1299.6 547.472 1294.28 547.584 1289.05 547.866C1294.27 541.116 1299.42 535.144 1304.89 529.453L1304.81 529.528L1304.82 529.547ZM1247.63 493.809C1266.87 497.334 1283.44 506.906 1295.71 520.444L1295.78 520.519C1287.53 529.181 1279.77 538.509 1272.66 548.344L1272.11 549.131C1258.28 550.566 1245.88 552.778 1233.81 555.825L1235.64 555.431C1234.33 549.694 1233.36 544.134 1232.67 538.8C1229.98 516.919 1233.3 499.903 1241.03 495.375C1242.97 494.466 1245.23 493.903 1247.61 493.828H1247.63L1247.63 493.809ZM1362.09 493.575V493.65C1362.22 493.65 1362.36 493.641 1362.51 493.641C1364.75 493.641 1366.86 494.194 1368.71 495.169L1368.64 495.131C1376.44 499.603 1379.82 516.628 1377.19 538.528C1376.56 543.919 1375.53 549.6 1374.26 555.394C1364.09 552.788 1351.71 550.584 1339.07 549.244L1337.87 549.141C1330.13 538.509 1322.31 529.163 1313.92 520.359L1314.03 520.472C1326.32 506.784 1342.88 497.147 1361.6 493.669L1362.12 493.584L1362.09 493.575ZM1362.15 480.806C1339.26 484.284 1319.44 495.403 1304.96 511.444L1304.89 511.528C1290.31 495.497 1270.49 484.453 1248.16 481.106L1247.63 481.041C1247.51 481.041 1247.36 481.041 1247.21 481.041C1242.61 481.041 1238.29 482.25 1234.55 484.369L1234.68 484.303C1218.57 493.594 1214.96 522.544 1223.28 558.872C1187.62 569.888 1164.42 587.494 1164.42 606.047C1164.42 624.675 1187.74 642.328 1223.5 653.259C1215.25 689.728 1218.94 718.725 1235.08 728.006C1238.63 730.041 1242.88 731.231 1247.41 731.231C1247.62 731.231 1247.82 731.231 1248.02 731.222H1247.99C1270.88 727.744 1290.7 716.616 1305.18 700.566L1305.25 700.481C1319.83 716.522 1339.65 727.566 1361.98 730.913L1362.51 730.978C1362.65 730.978 1362.83 730.978 1362.99 730.978C1367.57 730.978 1371.87 729.778 1375.59 727.688L1375.46 727.753C1391.56 718.472 1395.18 689.522 1386.86 653.184C1422.39 642.263 1445.59 624.619 1445.59 606.038C1445.59 587.409 1422.27 569.756 1386.51 558.797C1394.76 522.366 1391.07 493.341 1374.93 484.05C1371.35 481.997 1367.05 480.788 1362.48 480.788C1362.36 480.788 1362.23 480.788 1362.11 480.788H1362.13L1362.15 480.806ZM1331.13 606.047C1331.13 620.513 1319.4 632.241 1304.93 632.241C1290.47 632.241 1278.74 620.513 1278.74 606.047C1278.74 591.581 1290.47 579.853 1304.93 579.853C1312.17 579.853 1318.72 582.788 1323.46 587.522C1328.2 592.266 1331.13 598.809 1331.13 606.047Z" fill="#0A771A"/>
</g>
<path d="M1664 531.8V680.2H1815.62L1964 531.8H1664ZM1704.8 559.4H1704.86C1715.65 559.413 1728.8 562.463 1738.31 567.313L1728.06 585.188C1717.62 580.138 1712.37 579.663 1706.44 579.35C1697.59 578.875 1693.14 582.038 1693.07 585.45C1692.99 589.6 1701.44 593.363 1709.39 595.925C1721.44 599.75 1736.76 604.863 1739.1 619.675L1761.12 561.463H1786.7L1812.5 631.163L1812.41 561.475H1842.04C1870.25 561.475 1883.51 571.025 1883.51 592.963C1883.51 612.65 1869.89 624.388 1846.81 624.388H1837.27L1837.15 650.563L1792.3 650.525L1789.17 639.175C1784.55 640.7 1779.34 641.538 1773.8 641.538C1768.1 641.538 1762.74 640.65 1758.01 639.038L1753.54 650.525L1728.54 650.6L1729.66 644.825C1729.3 645.138 1728.95 645.45 1728.57 645.75C1721.89 651.125 1713.47 653.613 1703.11 653.8L1700.45 653.825C1689.14 653.94 1678 651.027 1668.19 645.388L1677.31 627.288C1687.19 633.125 1693.39 634.438 1701.76 634.263C1706.1 634.175 1709.24 633.388 1711.27 631.275C1712.47 630.033 1713.17 628.389 1713.22 626.663C1713.31 621.963 1706.6 619.75 1698.41 617.213C1691.77 615.163 1684.22 612.35 1678.34 608.025C1671.35 602.9 1668.03 596.475 1668.19 587.4C1668.23 580.963 1670.77 574.794 1675.26 570.188C1681.75 563.475 1692.22 559.4 1704.8 559.4ZM1837.26 580.275V604.075H1843.77C1852.45 604.075 1859.36 601.2 1859.38 592.025C1859.38 583.163 1852.45 580.275 1843.77 580.275H1837.26ZM1773.68 589.863L1764.32 619.388C1767.11 620.45 1770.34 621.05 1773.79 621.05C1777.14 621.05 1780.29 620.463 1783.06 619.475L1773.86 589.85L1773.68 589.863Z" fill="#0A771A"/>
<path fill-rule="evenodd" clip-rule="evenodd" d="M1704.8 559.4H1704.86C1715.65 559.413 1728.8 562.463 1738.31 567.313L1728.06 585.188C1717.62 580.138 1712.37 579.663 1706.44 579.35C1697.59 578.875 1693.14 582.038 1693.07 585.45C1692.99 589.6 1701.44 593.363 1709.39 595.925C1721.44 599.75 1736.76 604.863 1739.1 619.675L1761.12 561.463H1786.7L1812.5 631.163L1812.41 561.475H1842.04C1870.25 561.475 1883.51 571.025 1883.51 592.963C1883.51 612.65 1869.89 624.388 1846.81 624.388H1837.27L1837.15 650.563L1792.3 650.525L1789.17 639.175C1784.55 640.7 1779.34 641.538 1773.8 641.538C1768.1 641.538 1762.74 640.65 1758.01 639.038L1753.54 650.525L1728.54 650.6L1729.66 644.825C1729.3 645.138 1728.95 645.45 1728.57 645.75C1721.89 651.125 1713.47 653.613 1703.11 653.8L1700.45 653.825C1689.14 653.94 1678 651.027 1668.19 645.388L1677.31 627.288C1687.19 633.125 1693.39 634.438 1701.76 634.263C1706.1 634.175 1709.24 633.388 1711.27 631.275C1712.47 630.033 1713.17 628.389 1713.22 626.663C1713.31 621.963 1706.6 619.75 1698.41 617.213C1691.77 615.163 1684.22 612.35 1678.34 608.025C1671.35 602.9 1668.03 596.475 1668.19 587.4C1668.23 580.963 1670.77 574.794 1675.26 570.188C1681.75 563.475 1692.22 559.4 1704.8 559.4ZM1837.26 604.075V580.275H1843.77C1852.45 580.275 1859.38 583.163 1859.38 592.025C1859.36 601.2 1852.45 604.075 1843.77 604.075H1837.26ZM1764.32 619.388L1773.68 589.863L1773.86 589.85L1783.06 619.475C1780.29 620.463 1777.14 621.05 1773.79 621.05C1770.34 621.05 1767.11 620.45 1764.32 619.388Z" class="logo"/>
<defs>
<clipPath id="clip0_10_149">
<rect width="300" height="300" class="logo" transform="translate(646 456)"/>
</clipPath>
<clipPath id="clip1_10_149">
<rect width="300" height="300" class="logo" transform="translate(137 456)"/>
</clipPath>
<clipPath id="clip2_10_149">
<rect width="300" height="300" class="logo" transform="translate(1155 456)"/>
</clipPath>
</defs>
</svg>
