<svg width="1371" height="510" viewBox="0 0 1371 510" fill="none" xmlns="http://www.w3.org/2000/svg">
<style>
    /* Cor padrão (Dark Mode) */
    .main-color { fill: #0A771A; stroke: #0A771A; }
    .bg-elements { fill: #FFF9F3; stroke: #FFF9F3; }
    .text-color { fill: white; }

    /* Cores para Dark Mode */
    @media (prefers-color-scheme: light) {
      .main-color { fill: ##0A771A; stroke: ##0A771A; } /* Um verde mais vibrante para contraste */
      .bg-elements { fill: #121212; stroke: #121212; }
      .text-color { fill: black; }
    }
</style>
<ellipse cx="263" cy="255" rx="263" ry="255" fill="#0A771A"/>
<rect x="358" y="130" width="1013" height="299" rx="135" fill="#0A771A"/>
<path fill-rule="evenodd" clip-rule="evenodd" d="M333.281 419.416C357.067 428.931 370.942 432.111 400.281 419.416C409.213 406.212 412.723 398.681 409.281 384.416L424.281 365.416V338.416L419.281 318.416C427.741 317.749 446.281 311.416 439.281 298.416C432.281 285.416 424.281 279.57 424.281 279.57L418.436 274.932C418.551 271.233 418.748 267.068 419.281 262.416C420.569 241.999 409.281 221.416 409.281 226.416L400.281 189.416C436.183 200.914 439.176 192.619 424.281 160.416C441.998 145.293 439.975 138.641 419.281 129.416C404.827 102.16 396.944 89.9526 343.281 72.416C328.261 72.4229 312.757 68.8364 269.281 54.416C225.702 46.0491 201.991 42.842 180.281 79.416C150.587 91.1671 134.853 101.37 109.281 129.416C101.358 144.991 97.8768 156.374 96.2806 189.416C84.1397 197.064 81.0911 206.238 96.2806 249.416C98.9384 263.707 101.054 274.989 109.281 318.416C126.993 340.668 139.339 351.237 167.281 365.416L173.281 405.416L312.281 460.416L333.281 419.416Z" class="bg-elements"/>
<path d="M418.436 274.932L424.281 279.57C436.841 257.956 432.373 246.9 418.436 248.451C419.199 252.898 419.581 257.662 419.281 262.416C418.748 267.068 418.551 271.233 418.436 274.932Z" class="bg-elements"/>
<path d="M424.281 279.57C424.281 279.57 432.281 285.416 439.281 298.416C446.281 311.416 427.741 317.749 419.281 318.416L424.281 338.416V365.416L409.281 384.416C412.723 398.681 409.213 406.212 400.281 419.416C370.942 432.111 357.067 428.931 333.281 419.416L312.281 460.416L173.281 405.416L167.281 365.416C139.339 351.237 126.993 340.668 109.281 318.416C101.054 274.989 98.9384 263.707 96.2806 249.416C81.0911 206.238 84.1397 197.064 96.2806 189.416C97.8768 156.374 101.358 144.991 109.281 129.416C134.853 101.37 150.587 91.1671 180.281 79.416C201.991 42.842 225.702 46.0491 269.281 54.416C312.757 68.8364 328.261 72.4229 343.281 72.416C396.944 89.9526 404.827 102.16 419.281 129.416C439.975 138.641 441.998 145.293 424.281 160.416C439.176 192.619 436.183 200.914 400.281 189.416M424.281 279.57L418.436 274.932M424.281 279.57C436.841 257.956 432.373 246.9 418.436 248.451C419.199 252.898 419.581 257.662 419.281 262.416M418.436 274.932C418.551 271.233 418.748 267.068 419.281 262.416M418.436 274.932C418.407 275.876 418.383 276.792 418.36 277.676M419.281 262.416C420.569 241.999 409.281 221.416 409.281 226.416M409.281 226.416L400.281 189.416M409.281 226.416C402.783 223.488 392.76 253.947 396.781 257.748M400.281 189.416C374.328 209.402 365.402 204.044 355.281 177.416M418.354 277.911C418.356 277.834 418.358 277.755 418.36 277.676M418.354 277.911L418.36 277.676M418.354 277.911C414.356 287.051 407.949 319.756 400.281 304.416C392.613 289.077 393.475 269.637 396.781 257.748M418.36 277.676C418.361 277.633 418.362 277.59 418.363 277.547M396.781 257.748C310.041 227.399 272.472 212.597 241.281 209.416M252.281 311.416L241.281 298.416C219.055 295.086 213.695 280.102 206.281 249.416C207.46 228.116 221.359 216.991 241.281 221.416M249 318.416C256.175 328.023 269.843 311.005 257.5 306.416" stroke="#0A771A" stroke-width="6" stroke-linecap="round" stroke-linejoin="round"/>
<path d="M618.582 338.449C618.582 341.665 617.996 344.354 616.824 346.516C615.652 348.664 613.953 350.285 611.727 351.379C609.513 352.46 606.824 353 603.66 353H595.906V324.445H604.52C607.423 324.445 609.923 324.979 612.02 326.047C614.116 327.102 615.73 328.671 616.863 330.754C618.009 332.824 618.582 335.389 618.582 338.449ZM615.086 338.566C615.086 336.001 614.656 333.885 613.797 332.219C612.951 330.552 611.701 329.315 610.047 328.508C608.406 327.688 606.395 327.277 604.012 327.277H599.227V350.148H603.27C607.202 350.148 610.151 349.178 612.117 347.238C614.096 345.298 615.086 342.408 615.086 338.566ZM640.828 353H624.93V324.445H640.828V327.375H628.25V336.613H640.105V339.504H628.25V350.07H640.828V353ZM663.27 345.402C663.27 347.095 662.846 348.54 662 349.738C661.167 350.923 659.995 351.828 658.484 352.453C656.974 353.078 655.197 353.391 653.152 353.391C652.072 353.391 651.049 353.339 650.086 353.234C649.122 353.13 648.237 352.98 647.43 352.785C646.622 352.59 645.913 352.349 645.301 352.062V348.879C646.277 349.283 647.469 349.66 648.875 350.012C650.281 350.35 651.753 350.52 653.289 350.52C654.721 350.52 655.932 350.331 656.922 349.953C657.911 349.562 658.66 349.009 659.168 348.293C659.689 347.564 659.949 346.691 659.949 345.676C659.949 344.699 659.734 343.885 659.305 343.234C658.875 342.57 658.159 341.971 657.156 341.438C656.167 340.891 654.812 340.311 653.094 339.699C651.883 339.27 650.815 338.801 649.891 338.293C648.966 337.772 648.191 337.186 647.566 336.535C646.941 335.884 646.466 335.129 646.141 334.27C645.828 333.41 645.672 332.427 645.672 331.32C645.672 329.797 646.056 328.495 646.824 327.414C647.605 326.32 648.68 325.487 650.047 324.914C651.427 324.328 653.009 324.035 654.793 324.035C656.316 324.035 657.723 324.178 659.012 324.465C660.314 324.751 661.505 325.135 662.586 325.617L661.551 328.469C660.522 328.039 659.428 327.681 658.27 327.395C657.124 327.108 655.939 326.965 654.715 326.965C653.491 326.965 652.456 327.147 651.609 327.512C650.776 327.863 650.138 328.365 649.695 329.016C649.253 329.667 649.031 330.441 649.031 331.34C649.031 332.342 649.24 333.176 649.656 333.84C650.086 334.504 650.763 335.096 651.688 335.617C652.625 336.125 653.862 336.659 655.398 337.219C657.078 337.831 658.504 338.482 659.676 339.172C660.848 339.849 661.74 340.682 662.352 341.672C662.964 342.648 663.27 343.892 663.27 345.402ZM685.008 353H669.109V324.445H685.008V327.375H672.43V336.613H684.285V339.504H672.43V350.07H685.008V353ZM713.66 353H709.832L694.266 329.016H694.109C694.148 329.654 694.194 330.383 694.246 331.203C694.298 332.01 694.337 332.876 694.363 333.801C694.402 334.712 694.422 335.643 694.422 336.594V353H691.336V324.445H695.145L710.652 348.352H710.789C710.763 347.896 710.73 347.251 710.691 346.418C710.652 345.572 710.613 344.667 710.574 343.703C710.548 342.727 710.535 341.822 710.535 340.988V324.445H713.66V353ZM741.395 324.445L731.141 353H727.801L717.547 324.445H721.023L727.703 343.254C727.977 344.009 728.217 344.732 728.426 345.422C728.647 346.112 728.842 346.776 729.012 347.414C729.181 348.052 729.331 348.671 729.461 349.27C729.591 348.671 729.741 348.052 729.91 347.414C730.079 346.763 730.275 346.092 730.496 345.402C730.717 344.699 730.965 343.964 731.238 343.195L737.879 324.445H741.395ZM770.086 338.684C770.086 340.884 769.806 342.889 769.246 344.699C768.686 346.496 767.853 348.046 766.746 349.348C765.652 350.637 764.292 351.633 762.664 352.336C761.036 353.039 759.148 353.391 757 353.391C754.786 353.391 752.853 353.039 751.199 352.336C749.559 351.633 748.191 350.63 747.098 349.328C746.017 348.026 745.203 346.47 744.656 344.66C744.122 342.85 743.855 340.845 743.855 338.645C743.855 335.728 744.337 333.169 745.301 330.969C746.264 328.768 747.723 327.056 749.676 325.832C751.642 324.608 754.103 323.996 757.059 323.996C759.884 323.996 762.26 324.602 764.188 325.812C766.128 327.023 767.592 328.729 768.582 330.93C769.585 333.117 770.086 335.702 770.086 338.684ZM747.352 338.684C747.352 341.105 747.697 343.202 748.387 344.973C749.077 346.743 750.132 348.111 751.551 349.074C752.983 350.038 754.799 350.52 757 350.52C759.214 350.52 761.023 350.038 762.43 349.074C763.849 348.111 764.897 346.743 765.574 344.973C766.251 343.202 766.59 341.105 766.59 338.684C766.59 334.999 765.815 332.121 764.266 330.051C762.729 327.967 760.327 326.926 757.059 326.926C754.845 326.926 753.022 327.401 751.59 328.352C750.158 329.302 749.09 330.656 748.387 332.414C747.697 334.159 747.352 336.249 747.352 338.684ZM776.453 353V324.445H779.773V350.031H792.449V353H776.453ZM817.293 324.445L807.039 353H803.699L793.445 324.445H796.922L803.602 343.254C803.875 344.009 804.116 344.732 804.324 345.422C804.546 346.112 804.741 346.776 804.91 347.414C805.079 348.052 805.229 348.671 805.359 349.27C805.49 348.671 805.639 348.052 805.809 347.414C805.978 346.763 806.173 346.092 806.395 345.402C806.616 344.699 806.863 343.964 807.137 343.195L813.777 324.445H817.293ZM837.117 353H821.219V324.445H837.117V327.375H824.539V336.613H836.395V339.504H824.539V350.07H837.117V353ZM866.121 338.449C866.121 341.665 865.535 344.354 864.363 346.516C863.191 348.664 861.492 350.285 859.266 351.379C857.052 352.46 854.363 353 851.199 353H843.445V324.445H852.059C854.962 324.445 857.462 324.979 859.559 326.047C861.655 327.102 863.27 328.671 864.402 330.754C865.548 332.824 866.121 335.389 866.121 338.449ZM862.625 338.566C862.625 336.001 862.195 333.885 861.336 332.219C860.49 330.552 859.24 329.315 857.586 328.508C855.945 327.688 853.934 327.277 851.551 327.277H846.766V350.148H850.809C854.741 350.148 857.69 349.178 859.656 347.238C861.635 345.298 862.625 342.408 862.625 338.566ZM897.234 338.684C897.234 340.884 896.954 342.889 896.395 344.699C895.835 346.496 895.001 348.046 893.895 349.348C892.801 350.637 891.44 351.633 889.812 352.336C888.185 353.039 886.297 353.391 884.148 353.391C881.935 353.391 880.001 353.039 878.348 352.336C876.707 351.633 875.34 350.63 874.246 349.328C873.165 348.026 872.352 346.47 871.805 344.66C871.271 342.85 871.004 340.845 871.004 338.645C871.004 335.728 871.486 333.169 872.449 330.969C873.413 328.768 874.871 327.056 876.824 325.832C878.79 324.608 881.251 323.996 884.207 323.996C887.033 323.996 889.409 324.602 891.336 325.812C893.276 327.023 894.741 328.729 895.73 330.93C896.733 333.117 897.234 335.702 897.234 338.684ZM874.5 338.684C874.5 341.105 874.845 343.202 875.535 344.973C876.225 346.743 877.28 348.111 878.699 349.074C880.132 350.038 881.948 350.52 884.148 350.52C886.362 350.52 888.172 350.038 889.578 349.074C890.997 348.111 892.046 346.743 892.723 344.973C893.4 343.202 893.738 341.105 893.738 338.684C893.738 334.999 892.964 332.121 891.414 330.051C889.878 327.967 887.475 326.926 884.207 326.926C881.993 326.926 880.171 327.401 878.738 328.352C877.306 329.302 876.238 330.656 875.535 332.414C874.845 334.159 874.5 336.249 874.5 338.684ZM911.316 324.445C913.66 324.445 915.594 324.738 917.117 325.324C918.654 325.897 919.799 326.776 920.555 327.961C921.31 329.146 921.688 330.656 921.688 332.492C921.688 334.003 921.414 335.266 920.867 336.281C920.32 337.284 919.604 338.098 918.719 338.723C917.833 339.348 916.889 339.829 915.887 340.168L923.719 353H919.852L912.859 341.086H906.922V353H903.602V324.445H911.316ZM911.121 327.316H906.922V338.273H911.453C913.784 338.273 915.496 337.798 916.59 336.848C917.697 335.897 918.25 334.497 918.25 332.648C918.25 330.708 917.664 329.335 916.492 328.527C915.333 327.72 913.543 327.316 911.121 327.316ZM942 353H938.68V324.445H954.578V327.375H942V337.844H953.816V340.754H942V353ZM980.945 324.445V342.922C980.945 344.94 980.535 346.737 979.715 348.312C978.908 349.888 977.684 351.132 976.043 352.043C974.402 352.941 972.345 353.391 969.871 353.391C966.342 353.391 963.654 352.434 961.805 350.52C959.969 348.605 959.051 346.047 959.051 342.844V324.445H962.391V342.941C962.391 345.363 963.029 347.232 964.305 348.547C965.594 349.862 967.514 350.52 970.066 350.52C971.811 350.52 973.237 350.207 974.344 349.582C975.464 348.944 976.29 348.059 976.824 346.926C977.371 345.78 977.645 344.458 977.645 342.961V324.445H980.945ZM988.523 353V324.445H991.844V350.031H1004.52V353H988.523ZM1009.42 353V324.445H1012.74V350.031H1025.42V353H1009.42ZM1046.43 345.402C1046.43 347.095 1046.01 348.54 1045.16 349.738C1044.33 350.923 1043.16 351.828 1041.65 352.453C1040.14 353.078 1038.36 353.391 1036.32 353.391C1035.24 353.391 1034.21 353.339 1033.25 353.234C1032.29 353.13 1031.4 352.98 1030.59 352.785C1029.79 352.59 1029.08 352.349 1028.46 352.062V348.879C1029.44 349.283 1030.63 349.66 1032.04 350.012C1033.45 350.35 1034.92 350.52 1036.45 350.52C1037.89 350.52 1039.1 350.331 1040.09 349.953C1041.08 349.562 1041.82 349.009 1042.33 348.293C1042.85 347.564 1043.11 346.691 1043.11 345.676C1043.11 344.699 1042.9 343.885 1042.47 343.234C1042.04 342.57 1041.32 341.971 1040.32 341.438C1039.33 340.891 1037.98 340.311 1036.26 339.699C1035.05 339.27 1033.98 338.801 1033.05 338.293C1032.13 337.772 1031.36 337.186 1030.73 336.535C1030.11 335.884 1029.63 335.129 1029.3 334.27C1028.99 333.41 1028.84 332.427 1028.84 331.32C1028.84 329.797 1029.22 328.495 1029.99 327.414C1030.77 326.32 1031.84 325.487 1033.21 324.914C1034.59 324.328 1036.17 324.035 1037.96 324.035C1039.48 324.035 1040.89 324.178 1042.18 324.465C1043.48 324.751 1044.67 325.135 1045.75 325.617L1044.71 328.469C1043.69 328.039 1042.59 327.681 1041.43 327.395C1040.29 327.108 1039.1 326.965 1037.88 326.965C1036.65 326.965 1035.62 327.147 1034.77 327.512C1033.94 327.863 1033.3 328.365 1032.86 329.016C1032.42 329.667 1032.2 330.441 1032.2 331.34C1032.2 332.342 1032.4 333.176 1032.82 333.84C1033.25 334.504 1033.93 335.096 1034.85 335.617C1035.79 336.125 1037.03 336.659 1038.56 337.219C1040.24 337.831 1041.67 338.482 1042.84 339.172C1044.01 339.849 1044.9 340.682 1045.52 341.672C1046.13 342.648 1046.43 343.892 1046.43 345.402ZM1061.04 353H1057.7V327.375H1048.72V324.445H1069.99V327.375H1061.04V353ZM1092.21 353L1088.7 343.938H1077.25L1073.76 353H1070.4L1081.57 324.328H1084.56L1095.65 353H1092.21ZM1087.7 340.988L1084.36 331.984C1084.29 331.75 1084.15 331.366 1083.97 330.832C1083.8 330.298 1083.63 329.745 1083.45 329.172C1083.26 328.599 1083.11 328.137 1083 327.785C1082.87 328.319 1082.72 328.853 1082.57 329.387C1082.42 329.908 1082.28 330.396 1082.14 330.852C1081.99 331.294 1081.87 331.672 1081.77 331.984L1078.37 340.988H1087.7ZM1111.82 326.965C1110.25 326.965 1108.83 327.238 1107.57 327.785C1106.32 328.319 1105.25 329.1 1104.36 330.129C1103.49 331.145 1102.82 332.375 1102.35 333.82C1101.88 335.266 1101.65 336.893 1101.65 338.703C1101.65 341.099 1102.02 343.182 1102.76 344.953C1103.52 346.711 1104.64 348.072 1106.12 349.035C1107.62 349.999 1109.49 350.48 1111.73 350.48C1113 350.48 1114.2 350.376 1115.32 350.168C1116.45 349.947 1117.55 349.673 1118.62 349.348V352.238C1117.58 352.629 1116.49 352.915 1115.34 353.098C1114.19 353.293 1112.83 353.391 1111.26 353.391C1108.35 353.391 1105.93 352.792 1103.97 351.594C1102.03 350.383 1100.57 348.677 1099.6 346.477C1098.63 344.276 1098.15 341.678 1098.15 338.684C1098.15 336.522 1098.45 334.549 1099.05 332.766C1099.66 330.969 1100.55 329.419 1101.71 328.117C1102.88 326.815 1104.31 325.812 1106 325.109C1107.71 324.393 1109.66 324.035 1111.86 324.035C1113.31 324.035 1114.7 324.178 1116.04 324.465C1117.38 324.751 1118.6 325.161 1119.68 325.695L1118.35 328.508C1117.44 328.091 1116.43 327.733 1115.34 327.434C1114.26 327.121 1113.09 326.965 1111.82 326.965ZM1145.4 353H1141.47L1131.18 339.113L1128.13 341.848V353H1124.81V324.445H1128.13V338.684C1128.88 337.837 1129.64 336.997 1130.42 336.164C1131.2 335.318 1131.97 334.465 1132.74 333.605L1141.08 324.445H1144.97L1133.6 336.828L1145.4 353Z" fill="white"/>
<line x1="569" y1="289.5" x2="1178" y2="289.5" class="bg-elements"/>
<path d="M641.728 243.64C637.291 243.64 633.387 242.701 630.016 240.824C626.688 238.904 624.107 236.216 622.272 232.76C620.437 229.261 619.52 225.229 619.52 220.664C619.52 216.056 620.437 212.003 622.272 208.504C624.107 205.005 626.688 202.317 630.016 200.44C633.387 198.52 637.269 197.56 641.664 197.56C645.333 197.56 648.704 198.179 651.776 199.416C654.891 200.653 657.323 202.381 659.072 204.6C659.413 204.984 659.584 205.453 659.584 206.008C659.584 206.691 659.285 207.245 658.688 207.672C658.304 207.928 657.877 208.056 657.408 208.056C656.597 208.056 655.915 207.736 655.36 207.096C653.995 205.347 652.139 204.003 649.792 203.064C647.445 202.125 644.736 201.656 641.664 201.656C638.123 201.656 635.051 202.424 632.448 203.96C629.845 205.496 627.84 207.693 626.432 210.552C625.067 213.411 624.384 216.781 624.384 220.664C624.384 224.504 625.067 227.853 626.432 230.712C627.84 233.528 629.845 235.704 632.448 237.24C635.093 238.776 638.187 239.544 641.728 239.544C645.013 239.544 647.872 239.075 650.304 238.136C652.779 237.155 654.72 235.811 656.128 234.104C656.768 233.421 657.451 233.08 658.176 233.08C658.688 233.08 659.115 233.229 659.456 233.528C660.053 234.04 660.352 234.595 660.352 235.192C660.352 235.704 660.16 236.195 659.776 236.664C658.027 238.797 655.531 240.504 652.288 241.784C649.088 243.021 645.568 243.64 641.728 243.64ZM670.981 243.64C670.255 243.64 669.679 243.427 669.253 243C668.826 242.531 668.613 241.891 668.613 241.08V216.056C668.613 210.253 670.234 205.731 673.477 202.488C676.762 199.203 681.306 197.56 687.109 197.56C692.869 197.56 697.391 199.203 700.677 202.488C703.962 205.773 705.605 210.296 705.605 216.056V241.08C705.605 241.891 705.391 242.531 704.965 243C704.538 243.427 703.941 243.64 703.173 243.64C702.447 243.64 701.85 243.427 701.381 243C700.954 242.531 700.741 241.891 700.741 241.08V226.68H673.413V241.08C673.413 241.891 673.199 242.531 672.773 243C672.346 243.427 671.749 243.64 670.981 243.64ZM700.741 222.712V215.864C700.741 211.299 699.567 207.8 697.221 205.368C694.874 202.893 691.503 201.656 687.109 201.656C682.671 201.656 679.279 202.872 676.933 205.304C674.586 207.736 673.413 211.256 673.413 215.864V222.712H700.741ZM719.847 243.64C719.122 243.64 718.546 243.427 718.119 243C717.692 242.531 717.479 241.891 717.479 241.08V200.12C717.479 199.309 717.692 198.691 718.119 198.264C718.546 197.795 719.122 197.56 719.847 197.56C720.615 197.56 721.212 197.795 721.639 198.264C722.066 198.733 722.279 199.352 722.279 200.12V241.08C722.279 241.848 722.066 242.467 721.639 242.936C721.212 243.405 720.615 243.64 719.847 243.64ZM755.615 243.64C751.306 243.64 747.423 242.701 743.967 240.824C740.511 238.904 737.78 236.195 735.775 232.696C733.812 229.197 732.831 225.165 732.831 220.6C732.831 215.992 733.812 211.96 735.775 208.504C737.78 205.005 740.511 202.317 743.967 200.44C747.423 198.52 751.306 197.56 755.615 197.56C759.924 197.56 763.807 198.52 767.263 200.44C770.719 202.317 773.428 205.005 775.391 208.504C777.396 211.96 778.399 215.992 778.399 220.6C778.399 225.165 777.396 229.197 775.391 232.696C773.428 236.195 770.719 238.904 767.263 240.824C763.807 242.701 759.924 243.64 755.615 243.64ZM755.615 239.544C759.071 239.544 762.143 238.797 764.831 237.304C767.562 235.811 769.695 233.656 771.231 230.84C772.81 227.981 773.599 224.568 773.599 220.6C773.599 216.589 772.788 213.155 771.167 210.296C769.588 207.437 767.412 205.283 764.639 203.832C761.908 202.381 758.858 201.656 755.487 201.656C752.074 201.656 749.002 202.403 746.271 203.896C743.583 205.389 741.471 207.565 739.935 210.424C738.399 213.283 737.631 216.675 737.631 220.6C737.631 224.568 738.399 227.981 739.935 230.84C741.514 233.656 743.647 235.811 746.335 237.304C749.066 238.797 752.159 239.544 755.615 239.544ZM806.488 243.64C805.763 243.64 805.187 243.427 804.76 243C804.333 242.531 804.12 241.891 804.12 241.08V205.88C804.12 203.491 804.824 201.613 806.232 200.248C807.683 198.883 809.688 198.2 812.248 198.2H832.088C833.752 198.2 834.584 198.883 834.584 200.248C834.584 200.845 834.371 201.315 833.944 201.656C833.517 201.997 832.899 202.168 832.088 202.168H812.312C811.288 202.168 810.456 202.509 809.816 203.192C809.219 203.875 808.92 204.771 808.92 205.88V218.744H827.224C828.888 218.744 829.72 219.427 829.72 220.792C829.72 221.432 829.485 221.923 829.016 222.264C828.589 222.605 827.992 222.776 827.224 222.776H808.92V241.08C808.92 241.891 808.707 242.531 808.28 243C807.853 243.427 807.256 243.64 806.488 243.64ZM842.989 206.2C842.989 203.768 843.693 201.827 845.101 200.376C846.552 198.925 848.642 198.2 851.373 198.2H863.341C874.946 198.2 880.749 203.021 880.749 212.664C880.749 217.315 879.341 220.835 876.525 223.224C873.709 225.613 869.464 226.808 863.789 226.808L876.205 239.672C876.589 240.056 876.781 240.547 876.781 241.144C876.781 241.912 876.461 242.531 875.821 243C875.309 243.384 874.776 243.576 874.221 243.576C873.368 243.576 872.557 243.149 871.789 242.296L857.069 226.808H848.429V240.888C848.429 241.741 848.173 242.424 847.661 242.936C847.192 243.405 846.53 243.64 845.677 243.64C844.824 243.64 844.162 243.405 843.693 242.936C843.224 242.424 842.989 241.741 842.989 240.888V206.2ZM863.661 222.392C867.586 222.392 870.488 221.667 872.365 220.216C874.285 218.723 875.245 216.205 875.245 212.664C875.245 209.08 874.285 206.52 872.365 204.984C870.445 203.405 867.544 202.616 863.661 202.616H851.693C850.712 202.616 849.922 202.936 849.325 203.576C848.728 204.216 848.429 205.091 848.429 206.2V222.392H863.661ZM891.168 243.64C890.443 243.64 889.867 243.427 889.44 243C889.013 242.531 888.8 241.891 888.8 241.08V216.056C888.8 210.253 890.421 205.731 893.664 202.488C896.949 199.203 901.493 197.56 907.296 197.56C913.056 197.56 917.579 199.203 920.864 202.488C924.149 205.773 925.792 210.296 925.792 216.056V241.08C925.792 241.891 925.579 242.531 925.152 243C924.725 243.427 924.128 243.64 923.36 243.64C922.635 243.64 922.037 243.427 921.568 243C921.141 242.531 920.928 241.891 920.928 241.08V226.68H893.6V241.08C893.6 241.891 893.387 242.531 892.96 243C892.533 243.427 891.936 243.64 891.168 243.64ZM920.928 222.712V215.864C920.928 211.299 919.755 207.8 917.408 205.368C915.061 202.893 911.691 201.656 907.296 201.656C902.859 201.656 899.467 202.872 897.12 205.304C894.773 207.736 893.6 211.256 893.6 215.864V222.712H920.928ZM956.419 243.64C951.896 243.64 947.949 242.701 944.579 240.824C941.208 238.947 938.605 236.28 936.771 232.824C934.936 229.325 934.019 225.272 934.019 220.664C934.019 216.056 934.936 212.003 936.771 208.504C938.605 205.005 941.208 202.317 944.579 200.44C947.992 198.52 951.939 197.56 956.419 197.56C960.045 197.56 963.416 198.179 966.531 199.416C969.688 200.653 972.099 202.36 973.763 204.536C974.147 204.963 974.339 205.475 974.339 206.072C974.339 206.755 974.04 207.288 973.443 207.672C973.059 207.928 972.632 208.056 972.163 208.056C971.779 208.056 971.395 207.971 971.011 207.8C970.627 207.587 970.307 207.331 970.051 207.032C968.728 205.368 966.893 204.067 964.547 203.128C962.2 202.147 959.491 201.656 956.419 201.656C952.835 201.656 949.72 202.424 947.075 203.96C944.429 205.496 942.403 207.693 940.995 210.552C939.587 213.411 938.883 216.781 938.883 220.664C938.883 226.552 940.44 231.181 943.555 234.552C946.669 237.88 950.957 239.544 956.419 239.544C959.277 239.544 961.816 239.096 964.035 238.2C966.253 237.261 967.981 235.981 969.219 234.36C970.499 232.696 971.139 230.819 971.139 228.728V226.552C971.139 225.4 970.904 224.568 970.435 224.056C970.008 223.544 969.176 223.288 967.939 223.288H958.211C956.589 223.288 955.779 222.648 955.779 221.368C955.779 220.003 956.589 219.32 958.211 219.32H968.771C971.203 219.32 973.016 219.853 974.211 220.92C975.405 221.987 976.003 223.629 976.003 225.848V228.28C976.003 231.139 975.149 233.741 973.443 236.088C971.736 238.435 969.389 240.291 966.403 241.656C963.416 242.979 960.088 243.64 956.419 243.64ZM1005.68 243.64C1001.37 243.64 997.486 242.701 994.03 240.824C990.574 238.904 987.843 236.195 985.838 232.696C983.875 229.197 982.894 225.165 982.894 220.6C982.894 215.992 983.875 211.96 985.838 208.504C987.843 205.005 990.574 202.317 994.03 200.44C997.486 198.52 1001.37 197.56 1005.68 197.56C1009.99 197.56 1013.87 198.52 1017.33 200.44C1020.78 202.317 1023.49 205.005 1025.45 208.504C1027.46 211.96 1028.46 215.992 1028.46 220.6C1028.46 225.165 1027.46 229.197 1025.45 232.696C1023.49 236.195 1020.78 238.904 1017.33 240.824C1013.87 242.701 1009.99 243.64 1005.68 243.64ZM1005.68 239.544C1009.13 239.544 1012.21 238.797 1014.89 237.304C1017.62 235.811 1019.76 233.656 1021.29 230.84C1022.87 227.981 1023.66 224.568 1023.66 220.6C1023.66 216.589 1022.85 213.155 1021.23 210.296C1019.65 207.437 1017.47 205.283 1014.7 203.832C1011.97 202.381 1008.92 201.656 1005.55 201.656C1002.14 201.656 999.064 202.403 996.333 203.896C993.646 205.389 991.534 207.565 989.998 210.424C988.462 213.283 987.694 216.675 987.694 220.6C987.694 224.568 988.462 227.981 989.998 230.84C991.576 233.656 993.71 235.811 996.398 237.304C999.128 238.797 1002.22 239.544 1005.68 239.544ZM1055.3 243.64C1051.2 243.64 1047.43 242.957 1043.97 241.592C1040.56 240.184 1037.89 238.264 1035.97 235.832C1035.63 235.405 1035.46 234.957 1035.46 234.488C1035.46 233.891 1035.78 233.315 1036.42 232.76C1036.76 232.504 1037.12 232.376 1037.51 232.376C1038.27 232.376 1038.96 232.739 1039.55 233.464C1041.3 235.384 1043.5 236.877 1046.15 237.944C1048.83 238.968 1051.88 239.48 1055.3 239.48C1059.05 239.48 1061.95 238.797 1064 237.432C1066.05 236.024 1067.07 234.04 1067.07 231.48C1067.07 229.261 1066.07 227.469 1064.07 226.104C1062.1 224.739 1058.75 223.523 1054.02 222.456C1047.83 221.091 1043.37 219.384 1040.64 217.336C1037.95 215.245 1036.61 212.493 1036.61 209.08C1036.61 205.539 1038.1 202.744 1041.09 200.696C1044.12 198.605 1048.19 197.56 1053.31 197.56C1057.2 197.56 1060.69 198.243 1063.81 199.608C1066.97 200.973 1069.21 202.808 1070.53 205.112C1070.79 205.539 1070.91 205.944 1070.91 206.328C1070.91 207.011 1070.55 207.608 1069.83 208.12C1069.53 208.291 1069.19 208.376 1068.8 208.376C1067.86 208.376 1067.14 208.013 1066.63 207.288C1065.39 205.496 1063.64 204.131 1061.38 203.192C1059.12 202.211 1056.43 201.72 1053.31 201.72C1045.42 201.72 1041.47 204.173 1041.47 209.08C1041.47 210.573 1041.88 211.832 1042.69 212.856C1043.5 213.837 1044.8 214.733 1046.59 215.544C1048.43 216.312 1050.97 217.08 1054.21 217.848C1060.52 219.341 1065.07 221.155 1067.84 223.288C1070.61 225.379 1072 228.109 1072 231.48C1072 235.235 1070.49 238.2 1067.46 240.376C1064.47 242.552 1060.42 243.64 1055.3 243.64ZM1101.74 243.64C1097.43 243.64 1093.55 242.701 1090.09 240.824C1086.64 238.904 1083.91 236.195 1081.9 232.696C1079.94 229.197 1078.96 225.165 1078.96 220.6C1078.96 215.992 1079.94 211.96 1081.9 208.504C1083.91 205.005 1086.64 202.317 1090.09 200.44C1093.55 198.52 1097.43 197.56 1101.74 197.56C1106.05 197.56 1109.93 198.52 1113.39 200.44C1116.84 202.317 1119.55 205.005 1121.52 208.504C1123.52 211.96 1124.52 215.992 1124.52 220.6C1124.52 225.165 1123.52 229.197 1121.52 232.696C1119.55 236.195 1116.84 238.904 1113.39 240.824C1109.93 242.701 1106.05 243.64 1101.74 243.64ZM1101.74 239.544C1105.2 239.544 1108.27 238.797 1110.96 237.304C1113.69 235.811 1115.82 233.656 1117.36 230.84C1118.93 227.981 1119.72 224.568 1119.72 220.6C1119.72 216.589 1118.91 213.155 1117.29 210.296C1115.71 207.437 1113.54 205.283 1110.76 203.832C1108.03 202.381 1104.98 201.656 1101.61 201.656C1098.2 201.656 1095.13 202.403 1092.4 203.896C1089.71 205.389 1087.6 207.565 1086.06 210.424C1084.52 213.283 1083.76 216.675 1083.76 220.6C1083.76 224.568 1084.52 227.981 1086.06 230.84C1087.64 233.656 1089.77 235.811 1092.46 237.304C1095.19 238.797 1098.28 239.544 1101.74 239.544Z" class="bg-elements"/>
</svg>
